# Blender 5.1.0
# www.blender.org
mtllib LowPolyDio.mtl
o av_leg2
v -0.091742 -0.108019 0.083580
v -0.091742 0.108019 0.083580
v -0.091742 -0.108019 -0.083580
v -0.091742 0.108019 -0.083580
v 0.015120 -0.108019 0.083580
v 0.015120 0.108019 0.083580
v 0.015120 -0.108019 -0.083580
v 0.015120 0.108019 -0.083580
vn -1.0000 -0.0000 -0.0000
vn -0.0000 -0.0000 -1.0000
vn 1.0000 -0.0000 -0.0000
vn -0.0000 -0.0000 1.0000
vn -0.0000 -1.0000 -0.0000
vn -0.0000 1.0000 -0.0000
vt 0.000000 0.467997
vt 0.000000 0.268750
vt 0.333333 0.268750
vt 0.333333 0.467997
vt 0.000000 0.667243
vt 0.333333 0.467997
vt 0.333333 0.667243
vt 0.666667 0.268750
vt 0.666667 0.467997
vt 0.333333 0.667243
vt 0.666667 0.467997
vt 0.666667 0.667243
vt 1.000000 0.622163
vt 0.666667 0.622163
vt 1.000000 0.467997
vt 0.666667 0.313830
vt 1.000000 0.313830
s 0
usemtl Material.003
f 1/1/1 2/2/1 4/3/1 3/4/1
f 3/5/2 4/1/2 8/6/2 7/7/2
f 7/4/3 8/3/3 6/8/3 5/9/3
f 5/10/4 6/4/4 2/11/4 1/12/4
f 3/13/5 7/14/5 5/11/5 1/15/5
f 8/15/6 4/11/6 2/16/6 6/17/6
o av_leg
v 0.018780 -0.108019 0.083580
v 0.018780 0.108019 0.083580
v 0.018780 -0.108019 -0.083580
v 0.018780 0.108019 -0.083580
v 0.125642 -0.108019 0.083580
v 0.125642 0.108019 0.083580
v 0.125642 -0.108019 -0.083580
v 0.125642 0.108019 -0.083580
vn -1.0000 -0.0000 -0.0000
vn -0.0000 -0.0000 -1.0000
vn 1.0000 -0.0000 -0.0000
vn -0.0000 -0.0000 1.0000
vn -0.0000 -1.0000 -0.0000
vn -0.0000 1.0000 -0.0000
vt 0.000000 0.467997
vt 0.000000 0.268750
vt 0.333333 0.268750
vt 0.333333 0.467997
vt 0.000000 0.667243
vt 0.333333 0.467997
vt 0.333333 0.667243
vt 0.666667 0.268750
vt 0.666667 0.467997
vt 0.333333 0.667243
vt 0.666667 0.467997
vt 0.666667 0.667243
vt 1.000000 0.622163
vt 0.666667 0.622163
vt 1.000000 0.467997
vt 0.666667 0.313830
vt 1.000000 0.313830
s 0
usemtl Material.002
f 9/18/7 10/19/7 12/20/7 11/21/7
f 11/22/8 12/18/8 16/23/8 15/24/8
f 15/21/9 16/20/9 14/25/9 13/26/9
f 13/27/10 14/21/10 10/28/10 9/29/10
f 11/30/11 15/31/11 13/28/11 9/32/11
f 16/32/12 12/28/12 10/33/12 14/34/12
o av_torso
v -0.091297 0.108019 0.083580
v -0.091297 0.383455 0.083580
v -0.091297 0.108019 -0.083580
v -0.091297 0.383455 -0.083580
v 0.125498 0.108019 0.083580
v 0.125498 0.383455 0.083580
v 0.125498 0.108019 -0.083580
v 0.125498 0.383455 -0.083580
v 0.017101 0.383455 0.083580
v 0.017101 0.108019 0.083580
v 0.017101 0.108019 -0.083580
v 0.017101 0.383455 -0.083580
v 0.004111 0.425444 0.102656
vn -1.0000 -0.0000 -0.0000
vn -0.0000 -0.0000 -1.0000
vn 1.0000 -0.0000 -0.0000
vn -0.0000 -0.0000 1.0000
vn -0.0000 -1.0000 -0.0000
vn -0.0000 1.0000 -0.0000
vt 0.026997 0.304907
vt 0.026997 0.073657
vt 0.413871 0.073657
vt 0.413871 0.304907
vt 0.413871 0.536157
vt 0.413871 0.304907
vt 0.607308 0.304907
vt 0.607308 0.536157
vt 0.800745 0.073657
vt 0.800745 0.304907
vt 0.331432 0.832221
vt 0.331432 0.600971
vt 0.524869 0.600971
vt 0.524869 0.832221
vt 0.751423 0.188955
vt 0.751042 0.101002
vt 0.751423 0.013048
vt 0.926934 0.013321
vt 0.926802 0.101002
vt 0.926934 0.188683
vt 0.413871 0.483836
vt 0.220434 0.483836
vt 0.026997 0.483836
vt 0.220434 0.304907
vt 0.522191 0.831151
vt 0.522191 0.599901
vt 0.715628 0.599901
vt 0.715628 0.831151
vt 0.800745 0.536157
vt 0.994182 0.304907
vt 0.994182 0.536157
s 0
usemtl Material.004
f 17/35/13 18/36/13 20/37/13 19/38/13
f 19/39/14 20/40/14 28/41/14 27/42/14
f 23/38/15 24/37/15 22/43/15 21/44/15
f 21/45/16 22/46/16 25/47/16 26/48/16
f 19/49/17 27/50/17 23/51/17 21/52/17 26/53/17 17/54/17
f 24/55/18 28/56/18 20/57/18 18/35/18 25/58/18 22/40/18
f 26/59/16 25/60/16 18/61/16 17/62/16
f 27/63/14 28/44/14 24/64/14 23/65/14
o av_arm2
v -0.215955 0.237798 0.083580
v -0.215955 0.237798 -0.083580
v -0.091297 0.237798 0.083580
v -0.091297 0.383455 0.083580
v -0.091297 0.237798 -0.083580
v -0.091297 0.383455 -0.083580
vn -0.7597 0.6502 -0.0000
vn -0.0000 -0.0000 -1.0000
vn 1.0000 -0.0000 -0.0000
vn -0.0000 -1.0000 -0.0000
vn -0.0000 -0.0000 1.0000
vt 0.000000 0.268750
vt 0.339959 0.268750
vt 0.339959 0.525683
vt 0.000000 0.525683
vt 0.339959 0.675164
vt 0.679919 0.471957
vt 0.679919 0.675164
vt 0.339959 0.471957
vt 0.679919 0.268750
vt 0.679919 0.471957
vt 0.339959 0.682915
vt 0.000000 0.682915
vt 0.339959 0.525683
vt 0.679919 0.460075
vt 1.000000 0.268750
vt 1.000000 0.484577
s 0
usemtl Material.001
f 33/66/19 35/67/19 31/68/19 30/69/19
f 31/70/20 35/71/20 34/72/20
f 34/73/21 35/67/21 33/74/21 32/75/21
f 31/76/22 34/77/22 32/69/22 30/78/22
f 32/79/23 33/80/23 30/81/23
o av_head
v -0.171293 0.686435 0.091938
v -0.171293 0.686435 -0.091938
v 0.205495 0.686435 0.091938
v 0.205495 0.686435 -0.091938
v -0.171293 0.434069 0.091938
v -0.089945 0.383455 0.091938
v -0.089945 0.383455 -0.091938
v -0.171293 0.434069 -0.091938
v 0.124146 0.383455 0.091938
v 0.205495 0.434069 0.091938
v 0.205495 0.434069 -0.091938
v 0.124146 0.383455 -0.091938
v 0.017101 0.383455 0.091938
v 0.017101 0.686435 0.091938
v 0.017101 0.686435 -0.091938
v 0.017101 0.383455 -0.091938
v -0.176240 0.499380 0.507221
v -0.373244 0.590889 0.392967
vn -0.0000 1.0000 -0.0000
vn -0.5283 -0.8491 -0.0000
vn -1.0000 -0.0000 -0.0000
vn 0.5283 -0.8491 -0.0000
vn -0.0000 -1.0000 -0.0000
vn 1.0000 -0.0000 -0.0000
vn -0.0000 -0.0000 1.0000
vn -0.0000 -0.0000 -1.0000
vt 0.288306 0.595558
vt 0.125344 0.595558
vt -0.037618 0.595558
vt -0.037618 0.351115
vt 0.125344 0.351115
vt 0.288306 0.351115
vt 0.887473 0.330649
vt 0.887473 0.513981
vt 0.793650 0.513981
vt 0.793650 0.330649
vt 0.604246 0.303504
vt 0.604246 0.040359
vt 0.930170 0.040359
vt 0.930170 0.303504
vt 0.908633 0.552775
vt 0.908633 0.736108
vt 0.814810 0.736108
vt 0.814810 0.552775
vt 0.576793 0.337703
vt 0.484198 0.337703
vt 0.391603 0.337703
vt 0.391603 0.093259
vt 0.484198 0.093259
vt 0.576793 0.093259
vt 0.603360 0.305267
vt 0.603360 0.042122
vt 0.929284 0.042122
vt 0.929284 0.305267
vt 0.731552 0.315001
vt 0.859948 0.411298
vt 0.859948 0.891450
vt 0.562597 0.891450
vt 0.562597 0.315001
vt 0.671330 0.345308
vt 0.600963 0.292533
vt 0.600963 0.029387
vt 0.763925 0.029387
vt 0.763925 0.345308
vt 0.568421 0.315012
vt 0.568420 0.891461
vt 0.271070 0.891461
vt 0.271070 0.411310
vt 0.399466 0.315012
vt 0.767055 0.347741
vt 0.767055 0.031820
vt 0.930017 0.031820
vt 0.930017 0.294966
vt 0.859650 0.347741
s 0
usemtl Material.007
f 39/82/24 50/83/24 37/84/24 36/85/24 49/86/24 38/87/24
f 42/88/25 41/89/25 40/90/25 43/91/25
f 40/92/26 36/93/26 37/94/26 43/95/26
f 44/96/27 47/97/27 46/98/27 45/99/27
f 42/100/28 51/101/28 47/102/28 44/103/28 48/104/28 41/105/28
f 46/106/29 39/107/29 38/108/29 45/109/29
f 44/110/30 45/111/30 38/112/30 49/113/30 48/114/30
f 42/115/31 43/116/31 37/117/31 50/118/31 51/119/31
f 48/120/30 49/121/30 36/122/30 40/123/30 41/124/30
f 51/125/31 50/126/31 39/127/31 46/128/31 47/129/31
o av_ear
v -0.171289 0.686435 0.091938
v -0.171289 0.848342 0.091938
v -0.171289 0.686435 -0.091938
v -0.171289 0.848342 -0.091938
v 0.017101 0.686435 0.091938
v 0.017101 0.686435 -0.091938
vn -1.0000 -0.0000 -0.0000
vn -0.0000 -0.0000 -1.0000
vn -0.0000 -0.0000 1.0000
vn -0.0000 -1.0000 -0.0000
vn 0.6518 0.7584 -0.0000
vt 0.339959 0.471957
vt 0.339959 0.268750
vt 0.679919 0.268750
vt 0.679919 0.471957
vt 0.679919 0.460075
vt 1.000000 0.268750
vt 1.000000 0.484577
vt 0.679919 0.471957
vt 0.679919 0.675164
vt 0.339959 0.675164
vt 0.339959 0.682915
vt 0.000000 0.682915
vt 0.000000 0.525683
vt 0.339959 0.525683
vt 0.000000 0.268750
vt 0.339959 0.525683
s 0
usemtl Material.005
f 54/130/32 55/131/32 57/132/32 56/133/32
f 56/134/33 57/135/33 59/136/33
f 55/137/34 54/138/34 58/139/34
f 56/140/35 59/141/35 58/142/35 54/143/35
f 57/144/36 55/131/36 58/145/36 59/142/36
o av_ear2
v 0.205491 0.686435 -0.091938
v 0.205491 0.848342 -0.091938
v 0.205491 0.686435 0.091938
v 0.205491 0.848342 0.091938
v 0.017101 0.686435 -0.091938
v 0.017101 0.686435 0.091938
vn 1.0000 -0.0000 -0.0000
vn -0.0000 -0.0000 1.0000
vn -0.0000 -0.0000 -1.0000
vn -0.0000 -1.0000 -0.0000
vn -0.6518 0.7584 -0.0000
vt 0.339959 0.471957
vt 0.339959 0.268750
vt 0.679919 0.268750
vt 0.679919 0.471957
vt 0.679919 0.460075
vt 1.000000 0.268750
vt 1.000000 0.484577
vt 0.679919 0.471957
vt 0.679919 0.675164
vt 0.339959 0.675164
vt 0.339959 0.682915
vt 0.000000 0.682915
vt 0.000000 0.525683
vt 0.339959 0.525683
vt 0.000000 0.268750
vt 0.339959 0.525683
s 0
usemtl Material.006
f 60/146/37 61/147/37 63/148/37 62/149/37
f 62/150/38 63/151/38 65/152/38
f 61/153/39 60/154/39 64/155/39
f 62/156/40 65/157/40 64/158/40 60/159/40
f 63/160/41 61/147/41 64/161/41 65/158/41
o av_arm
v 0.250157 0.237798 -0.083580
v 0.250157 0.237798 0.083580
v 0.125498 0.237798 -0.083580
v 0.125498 0.383455 -0.083580
v 0.125498 0.237798 0.083580
v 0.125498 0.383455 0.083580
vn 0.7597 0.6502 -0.0000
vn -0.0000 -0.0000 1.0000
vn -1.0000 -0.0000 -0.0000
vn -0.0000 -1.0000 -0.0000
vn -0.0000 -0.0000 -1.0000
vt 0.000000 0.268750
vt 0.339959 0.268750
vt 0.339959 0.525683
vt 0.000000 0.525683
vt 0.339959 0.675164
vt 0.679919 0.471957
vt 0.679919 0.675164
vt 0.339959 0.471957
vt 0.679919 0.268750
vt 0.679919 0.471957
vt 0.339959 0.682915
vt 0.000000 0.682915
vt 0.339959 0.525683
vt 0.679919 0.460075
vt 1.000000 0.268750
vt 1.000000 0.484577
s 0
usemtl Material
f 69/162/42 71/163/42 67/164/42 66/165/42
f 67/166/43 71/167/43 70/168/43
f 70/169/44 71/163/44 69/170/44 68/171/44
f 67/172/45 70/173/45 68/165/45 66/174/45
f 68/175/46 69/176/46 66/177/46
